<mxfile host="app.diagrams.net" modified="2024-03-07T12:47:34.029Z" agent="Mozilla/5.0 (Windows NT 10.0; Win64; x64) AppleWebKit/537.36 (KHTML, like Gecko) Chrome/121.0.0.0 Safari/537.36 OPR/107.0.0.0 (Edition Yx GX)" etag="h91UYodq21o9w4eljn6e" version="22.1.16" type="device">
  <diagram name="Страница — 1" id="MrRAl2XtYfruWJyInLjq">
    <mxGraphModel dx="2441" dy="985" grid="1" gridSize="10" guides="1" tooltips="1" connect="1" arrows="1" fold="1" page="1" pageScale="1" pageWidth="827" pageHeight="1169" math="0" shadow="0">
      <root>
        <mxCell id="0" />
        <mxCell id="1" parent="0" />
        <mxCell id="hiUEblicB5KrmqNcGbAS-20" style="rounded=0;orthogonalLoop=1;jettySize=auto;html=1;exitX=1;exitY=1;exitDx=0;exitDy=0;exitPerimeter=0;endArrow=none;endFill=0;" edge="1" parent="1" source="hiUEblicB5KrmqNcGbAS-2" target="hiUEblicB5KrmqNcGbAS-16">
          <mxGeometry relative="1" as="geometry" />
        </mxCell>
        <mxCell id="hiUEblicB5KrmqNcGbAS-42" style="edgeStyle=orthogonalEdgeStyle;rounded=0;orthogonalLoop=1;jettySize=auto;html=1;exitX=0.5;exitY=0.5;exitDx=0;exitDy=0;exitPerimeter=0;endArrow=none;endFill=0;" edge="1" parent="1" source="hiUEblicB5KrmqNcGbAS-2" target="hiUEblicB5KrmqNcGbAS-27">
          <mxGeometry relative="1" as="geometry">
            <Array as="points">
              <mxPoint x="195" y="320" />
              <mxPoint x="640" y="320" />
            </Array>
          </mxGeometry>
        </mxCell>
        <mxCell id="hiUEblicB5KrmqNcGbAS-46" style="rounded=0;orthogonalLoop=1;jettySize=auto;html=1;exitX=0.5;exitY=0;exitDx=0;exitDy=0;exitPerimeter=0;entryX=1;entryY=1;entryDx=0;entryDy=0;endArrow=none;endFill=0;" edge="1" parent="1" source="hiUEblicB5KrmqNcGbAS-2" target="hiUEblicB5KrmqNcGbAS-45">
          <mxGeometry relative="1" as="geometry" />
        </mxCell>
        <mxCell id="hiUEblicB5KrmqNcGbAS-47" style="rounded=0;orthogonalLoop=1;jettySize=auto;html=1;exitX=0.5;exitY=0.5;exitDx=0;exitDy=0;exitPerimeter=0;" edge="1" parent="1" source="hiUEblicB5KrmqNcGbAS-2" target="hiUEblicB5KrmqNcGbAS-5">
          <mxGeometry relative="1" as="geometry" />
        </mxCell>
        <mxCell id="hiUEblicB5KrmqNcGbAS-2" value="Гость" style="shape=umlActor;verticalLabelPosition=bottom;verticalAlign=top;html=1;" vertex="1" parent="1">
          <mxGeometry x="180" y="360" width="30" height="60" as="geometry" />
        </mxCell>
        <mxCell id="hiUEblicB5KrmqNcGbAS-24" style="rounded=0;orthogonalLoop=1;jettySize=auto;html=1;exitX=0.5;exitY=0.5;exitDx=0;exitDy=0;exitPerimeter=0;entryX=0;entryY=0.5;entryDx=0;entryDy=0;endArrow=none;endFill=0;" edge="1" parent="1" source="hiUEblicB5KrmqNcGbAS-3" target="hiUEblicB5KrmqNcGbAS-23">
          <mxGeometry relative="1" as="geometry" />
        </mxCell>
        <mxCell id="hiUEblicB5KrmqNcGbAS-48" style="rounded=0;orthogonalLoop=1;jettySize=auto;html=1;exitX=0.5;exitY=0.5;exitDx=0;exitDy=0;exitPerimeter=0;entryX=1;entryY=0.5;entryDx=0;entryDy=0;" edge="1" parent="1" source="hiUEblicB5KrmqNcGbAS-3" target="hiUEblicB5KrmqNcGbAS-5">
          <mxGeometry relative="1" as="geometry" />
        </mxCell>
        <mxCell id="hiUEblicB5KrmqNcGbAS-3" value="Работник гардероба" style="shape=umlActor;verticalLabelPosition=bottom;verticalAlign=top;html=1;" vertex="1" parent="1">
          <mxGeometry x="180" y="570" width="30" height="60" as="geometry" />
        </mxCell>
        <mxCell id="hiUEblicB5KrmqNcGbAS-43" style="rounded=0;orthogonalLoop=1;jettySize=auto;html=1;exitX=0.5;exitY=0.5;exitDx=0;exitDy=0;exitPerimeter=0;entryX=0;entryY=0.5;entryDx=0;entryDy=0;endArrow=none;endFill=0;" edge="1" parent="1" source="hiUEblicB5KrmqNcGbAS-4" target="hiUEblicB5KrmqNcGbAS-11">
          <mxGeometry relative="1" as="geometry" />
        </mxCell>
        <mxCell id="hiUEblicB5KrmqNcGbAS-44" style="rounded=0;orthogonalLoop=1;jettySize=auto;html=1;exitX=0.5;exitY=0.5;exitDx=0;exitDy=0;exitPerimeter=0;entryX=0;entryY=0.5;entryDx=0;entryDy=0;endArrow=none;endFill=0;" edge="1" parent="1" source="hiUEblicB5KrmqNcGbAS-4" target="hiUEblicB5KrmqNcGbAS-12">
          <mxGeometry relative="1" as="geometry" />
        </mxCell>
        <mxCell id="hiUEblicB5KrmqNcGbAS-49" style="rounded=0;orthogonalLoop=1;jettySize=auto;html=1;exitX=0.5;exitY=0.5;exitDx=0;exitDy=0;exitPerimeter=0;entryX=0.5;entryY=1;entryDx=0;entryDy=0;" edge="1" parent="1" source="hiUEblicB5KrmqNcGbAS-4" target="hiUEblicB5KrmqNcGbAS-5">
          <mxGeometry relative="1" as="geometry" />
        </mxCell>
        <mxCell id="hiUEblicB5KrmqNcGbAS-4" value="Администратор&lt;br&gt;" style="shape=umlActor;verticalLabelPosition=bottom;verticalAlign=top;html=1;" vertex="1" parent="1">
          <mxGeometry x="180" y="720" width="30" height="60" as="geometry" />
        </mxCell>
        <mxCell id="hiUEblicB5KrmqNcGbAS-5" value="Просмотр состояния АГР" style="ellipse;whiteSpace=wrap;html=1;" vertex="1" parent="1">
          <mxGeometry x="-80" y="565" width="140" height="70" as="geometry" />
        </mxCell>
        <mxCell id="hiUEblicB5KrmqNcGbAS-50" style="rounded=0;orthogonalLoop=1;jettySize=auto;html=1;exitX=1;exitY=1;exitDx=0;exitDy=0;entryX=0;entryY=0;entryDx=0;entryDy=0;dashed=1;" edge="1" parent="1" source="hiUEblicB5KrmqNcGbAS-6" target="hiUEblicB5KrmqNcGbAS-5">
          <mxGeometry relative="1" as="geometry" />
        </mxCell>
        <mxCell id="hiUEblicB5KrmqNcGbAS-52" value="&amp;lt;&amp;lt;extend&amp;gt;&amp;gt;" style="edgeLabel;html=1;align=center;verticalAlign=middle;resizable=0;points=[];" vertex="1" connectable="0" parent="hiUEblicB5KrmqNcGbAS-50">
          <mxGeometry x="-0.1688" relative="1" as="geometry">
            <mxPoint x="39" y="-13" as="offset" />
          </mxGeometry>
        </mxCell>
        <mxCell id="hiUEblicB5KrmqNcGbAS-6" value="Просмотр наличия свободных мест в АГР" style="ellipse;whiteSpace=wrap;html=1;" vertex="1" parent="1">
          <mxGeometry x="-230" y="495" width="140" height="70" as="geometry" />
        </mxCell>
        <mxCell id="hiUEblicB5KrmqNcGbAS-51" style="rounded=0;orthogonalLoop=1;jettySize=auto;html=1;exitX=1;exitY=0;exitDx=0;exitDy=0;entryX=0;entryY=1;entryDx=0;entryDy=0;dashed=1;" edge="1" parent="1" source="hiUEblicB5KrmqNcGbAS-7" target="hiUEblicB5KrmqNcGbAS-5">
          <mxGeometry relative="1" as="geometry" />
        </mxCell>
        <mxCell id="hiUEblicB5KrmqNcGbAS-53" value="&amp;lt;&amp;lt;extend&amp;gt;&amp;gt;" style="edgeLabel;html=1;align=center;verticalAlign=middle;resizable=0;points=[];" vertex="1" connectable="0" parent="hiUEblicB5KrmqNcGbAS-51">
          <mxGeometry x="0.0691" y="-3" relative="1" as="geometry">
            <mxPoint x="26" y="12" as="offset" />
          </mxGeometry>
        </mxCell>
        <mxCell id="hiUEblicB5KrmqNcGbAS-7" value="Просмотр графика работы АГР" style="ellipse;whiteSpace=wrap;html=1;" vertex="1" parent="1">
          <mxGeometry x="-220" y="660" width="140" height="70" as="geometry" />
        </mxCell>
        <mxCell id="hiUEblicB5KrmqNcGbAS-11" value="Добавление новых АГР в систему" style="ellipse;whiteSpace=wrap;html=1;" vertex="1" parent="1">
          <mxGeometry x="285" y="690" width="140" height="70" as="geometry" />
        </mxCell>
        <mxCell id="hiUEblicB5KrmqNcGbAS-12" value="Изменение данных АГР" style="ellipse;whiteSpace=wrap;html=1;" vertex="1" parent="1">
          <mxGeometry x="285" y="790" width="140" height="70" as="geometry" />
        </mxCell>
        <mxCell id="hiUEblicB5KrmqNcGbAS-25" style="rounded=0;orthogonalLoop=1;jettySize=auto;html=1;entryX=0.5;entryY=0;entryDx=0;entryDy=0;endArrow=classic;endFill=1;dashed=1;" edge="1" parent="1" source="hiUEblicB5KrmqNcGbAS-14" target="hiUEblicB5KrmqNcGbAS-23">
          <mxGeometry relative="1" as="geometry" />
        </mxCell>
        <mxCell id="hiUEblicB5KrmqNcGbAS-26" value="&amp;lt;&amp;lt;include&amp;gt;&amp;gt;" style="edgeLabel;html=1;align=center;verticalAlign=middle;resizable=0;points=[];" vertex="1" connectable="0" parent="hiUEblicB5KrmqNcGbAS-25">
          <mxGeometry x="-0.3429" y="-1" relative="1" as="geometry">
            <mxPoint x="-34" y="9" as="offset" />
          </mxGeometry>
        </mxCell>
        <mxCell id="hiUEblicB5KrmqNcGbAS-30" style="rounded=0;orthogonalLoop=1;jettySize=auto;html=1;exitX=1;exitY=1;exitDx=0;exitDy=0;dashed=1;" edge="1" parent="1" source="hiUEblicB5KrmqNcGbAS-14" target="hiUEblicB5KrmqNcGbAS-29">
          <mxGeometry relative="1" as="geometry" />
        </mxCell>
        <mxCell id="hiUEblicB5KrmqNcGbAS-33" value="&amp;lt;&amp;lt;extend&amp;gt;&amp;gt;" style="edgeLabel;html=1;align=center;verticalAlign=middle;resizable=0;points=[];" vertex="1" connectable="0" parent="hiUEblicB5KrmqNcGbAS-30">
          <mxGeometry x="0.0616" y="-1" relative="1" as="geometry">
            <mxPoint x="29" y="-10" as="offset" />
          </mxGeometry>
        </mxCell>
        <mxCell id="hiUEblicB5KrmqNcGbAS-14" value="Получение номера выделенной ячейки гардероба" style="ellipse;whiteSpace=wrap;html=1;" vertex="1" parent="1">
          <mxGeometry x="285" y="355" width="140" height="70" as="geometry" />
        </mxCell>
        <mxCell id="hiUEblicB5KrmqNcGbAS-16" value="Обращение в поддержку" style="ellipse;whiteSpace=wrap;html=1;" vertex="1" parent="1">
          <mxGeometry x="160" y="480" width="140" height="70" as="geometry" />
        </mxCell>
        <mxCell id="hiUEblicB5KrmqNcGbAS-21" style="rounded=0;orthogonalLoop=1;jettySize=auto;html=1;exitX=0.5;exitY=0;exitDx=0;exitDy=0;exitPerimeter=0;endArrow=none;endFill=0;" edge="1" parent="1" source="hiUEblicB5KrmqNcGbAS-3">
          <mxGeometry relative="1" as="geometry">
            <mxPoint x="205" y="400" as="sourcePoint" />
            <mxPoint x="230" y="550" as="targetPoint" />
          </mxGeometry>
        </mxCell>
        <mxCell id="hiUEblicB5KrmqNcGbAS-22" style="rounded=0;orthogonalLoop=1;jettySize=auto;html=1;endArrow=none;endFill=0;entryX=0.5;entryY=0.5;entryDx=0;entryDy=0;entryPerimeter=0;" edge="1" parent="1" target="hiUEblicB5KrmqNcGbAS-2">
          <mxGeometry relative="1" as="geometry">
            <mxPoint x="280" y="390" as="sourcePoint" />
            <mxPoint x="81" y="487" as="targetPoint" />
            <Array as="points" />
          </mxGeometry>
        </mxCell>
        <mxCell id="hiUEblicB5KrmqNcGbAS-23" value="Получение номера запрашиваемой ячейки гардероба" style="ellipse;whiteSpace=wrap;html=1;" vertex="1" parent="1">
          <mxGeometry x="285" y="565" width="140" height="70" as="geometry" />
        </mxCell>
        <mxCell id="hiUEblicB5KrmqNcGbAS-27" value="Получение вещи из ячейки АГР" style="ellipse;whiteSpace=wrap;html=1;" vertex="1" parent="1">
          <mxGeometry x="570" y="520" width="140" height="70" as="geometry" />
        </mxCell>
        <mxCell id="hiUEblicB5KrmqNcGbAS-28" value="Помещение вещи в ячейку АГР" style="ellipse;whiteSpace=wrap;html=1;" vertex="1" parent="1">
          <mxGeometry x="500" y="630" width="140" height="70" as="geometry" />
        </mxCell>
        <mxCell id="hiUEblicB5KrmqNcGbAS-31" style="rounded=0;orthogonalLoop=1;jettySize=auto;html=1;exitX=0.5;exitY=1;exitDx=0;exitDy=0;dashed=1;" edge="1" parent="1" source="hiUEblicB5KrmqNcGbAS-29" target="hiUEblicB5KrmqNcGbAS-23">
          <mxGeometry relative="1" as="geometry" />
        </mxCell>
        <mxCell id="hiUEblicB5KrmqNcGbAS-32" value="&amp;lt;&amp;lt;incllude&amp;gt;&amp;gt;" style="edgeLabel;html=1;align=center;verticalAlign=middle;resizable=0;points=[];" vertex="1" connectable="0" parent="hiUEblicB5KrmqNcGbAS-31">
          <mxGeometry x="-0.339" y="4" relative="1" as="geometry">
            <mxPoint x="6" y="15" as="offset" />
          </mxGeometry>
        </mxCell>
        <mxCell id="hiUEblicB5KrmqNcGbAS-29" value="Получение вещи для помещения на хранение" style="ellipse;whiteSpace=wrap;html=1;" vertex="1" parent="1">
          <mxGeometry x="390" y="450" width="150" height="70" as="geometry" />
        </mxCell>
        <mxCell id="hiUEblicB5KrmqNcGbAS-34" style="rounded=0;orthogonalLoop=1;jettySize=auto;html=1;dashed=1;entryX=0;entryY=0.5;entryDx=0;entryDy=0;exitX=1;exitY=0.5;exitDx=0;exitDy=0;" edge="1" parent="1" source="hiUEblicB5KrmqNcGbAS-23" target="hiUEblicB5KrmqNcGbAS-27">
          <mxGeometry relative="1" as="geometry">
            <mxPoint x="450" y="610" as="sourcePoint" />
            <mxPoint x="447" y="463" as="targetPoint" />
          </mxGeometry>
        </mxCell>
        <mxCell id="hiUEblicB5KrmqNcGbAS-35" value="&amp;lt;&amp;lt;extend&amp;gt;&amp;gt;" style="edgeLabel;html=1;align=center;verticalAlign=middle;resizable=0;points=[];" vertex="1" connectable="0" parent="hiUEblicB5KrmqNcGbAS-34">
          <mxGeometry x="0.0616" y="-1" relative="1" as="geometry">
            <mxPoint x="-4" y="19" as="offset" />
          </mxGeometry>
        </mxCell>
        <mxCell id="hiUEblicB5KrmqNcGbAS-36" style="rounded=0;orthogonalLoop=1;jettySize=auto;html=1;exitX=1;exitY=1;exitDx=0;exitDy=0;dashed=1;entryX=0;entryY=0.5;entryDx=0;entryDy=0;" edge="1" parent="1" source="hiUEblicB5KrmqNcGbAS-23" target="hiUEblicB5KrmqNcGbAS-28">
          <mxGeometry relative="1" as="geometry">
            <mxPoint x="435" y="610" as="sourcePoint" />
            <mxPoint x="582" y="572" as="targetPoint" />
          </mxGeometry>
        </mxCell>
        <mxCell id="hiUEblicB5KrmqNcGbAS-37" value="&amp;lt;&amp;lt;extend&amp;gt;&amp;gt;" style="edgeLabel;html=1;align=center;verticalAlign=middle;resizable=0;points=[];" vertex="1" connectable="0" parent="hiUEblicB5KrmqNcGbAS-36">
          <mxGeometry x="0.0616" y="-1" relative="1" as="geometry">
            <mxPoint x="29" y="-10" as="offset" />
          </mxGeometry>
        </mxCell>
        <mxCell id="hiUEblicB5KrmqNcGbAS-45" value="Получение информации о предыдущих посещениях" style="ellipse;whiteSpace=wrap;html=1;" vertex="1" parent="1">
          <mxGeometry x="20" y="260" width="140" height="70" as="geometry" />
        </mxCell>
      </root>
    </mxGraphModel>
  </diagram>
</mxfile>
